<svg width="20" height="20" viewBox="0 0 20 20" fill="none" xmlns="http://www.w3.org/2000/svg">
<path d="M18.3082 15.2748C18.3082 15.5748 18.2415 15.8832 18.0998 16.1832C17.9582 16.4832 17.7748 16.7665 17.5332 17.0332C17.1248 17.4832 16.6748 17.8082 16.1665 18.0165C15.6665 18.2248 15.1248 18.3332 14.5415 18.3332C13.6915 18.3332 12.7832 18.1332 11.8248 17.7248C10.8665 17.3165 9.90817 16.7665 8.95817 16.0748C7.99984 15.3748 7.0915 14.5998 6.22484 13.7415C5.3665 12.8748 4.5915 11.9665 3.89984 11.0165C3.2165 10.0665 2.6665 9.1165 2.2665 8.17484C1.8665 7.22484 1.6665 6.3165 1.6665 5.44984C1.6665 4.88317 1.7665 4.3415 1.9665 3.8415C2.1665 3.33317 2.48317 2.8665 2.92484 2.44984C3.45817 1.92484 4.0415 1.6665 4.65817 1.6665C4.8915 1.6665 5.12484 1.7165 5.33317 1.8165C5.54984 1.9165 5.7415 2.0665 5.8915 2.28317L7.82484 5.00817C7.97484 5.2165 8.08317 5.40817 8.15817 5.5915C8.23317 5.7665 8.27484 5.9415 8.27484 6.09984C8.27484 6.29984 8.2165 6.49984 8.09984 6.6915C7.9915 6.88317 7.83317 7.08317 7.63317 7.28317L6.99984 7.9415C6.90817 8.03317 6.8665 8.1415 6.8665 8.27484C6.8665 8.3415 6.87484 8.39984 6.8915 8.4665C6.9165 8.53317 6.9415 8.58317 6.95817 8.63317C7.10817 8.90817 7.3665 9.2665 7.73317 9.69984C8.10817 10.1332 8.50817 10.5748 8.9415 11.0165C9.3915 11.4582 9.82484 11.8665 10.2665 12.2415C10.6998 12.6082 11.0582 12.8582 11.3415 13.0082C11.3832 13.0248 11.4332 13.0498 11.4915 13.0748C11.5582 13.0998 11.6248 13.1082 11.6998 13.1082C11.8415 13.1082 11.9498 13.0582 12.0415 12.9665L12.6748 12.3415C12.8832 12.1332 13.0832 11.9748 13.2748 11.8748C13.4665 11.7582 13.6582 11.6998 13.8665 11.6998C14.0248 11.6998 14.1915 11.7332 14.3748 11.8082C14.5582 11.8832 14.7498 11.9915 14.9582 12.1332L17.7165 14.0915C17.9332 14.2415 18.0832 14.4165 18.1748 14.6248C18.2582 14.8332 18.3082 15.0415 18.3082 15.2748Z" stroke="#A6A6A6" stroke-width="1.5" stroke-miterlimit="10"/>
</svg>
