<svg width="40" height="40" viewBox="0 0 40 40" fill="none" xmlns="http://www.w3.org/2000/svg">
<rect x="0.5" y="0.5" width="39" height="39" rx="11.5" fill="white"/>
<rect x="0.5" y="0.5" width="39" height="39" rx="11.5" stroke="#E6E6E6"/>
<path d="M14.4997 11.75H25.4997C26.4163 11.75 27.1663 12.5 27.1663 13.4167V15.25C27.1663 15.9167 26.7497 16.75 26.333 17.1667L22.7497 20.3333C22.2497 20.75 21.9163 21.5833 21.9163 22.25V25.8333C21.9163 26.3333 21.583 27 21.1663 27.25L19.9997 28C18.9163 28.6667 17.4163 27.9167 17.4163 26.5833V22.1667C17.4163 21.5833 17.083 20.8333 16.7497 20.4167L13.583 17.0833C13.1663 16.6667 12.833 15.9167 12.833 15.4167V13.5C12.833 12.5 13.583 11.75 14.4997 11.75Z" stroke="#808080" stroke-width="1.5" stroke-miterlimit="10" stroke-linecap="round" stroke-linejoin="round"/>
</svg>
