<svg width="21" height="20" viewBox="0 0 21 20" fill="none" xmlns="http://www.w3.org/2000/svg">
<path d="M17.8581 6.67485L12.3998 2.30819C11.3331 1.45819 9.66647 1.44985 8.60814 2.29985L3.14981 6.67485C2.36647 7.29985 1.89147 8.54985 2.05814 9.53318L3.10814 15.8165C3.34981 17.2249 4.65814 18.3332 6.08314 18.3332H14.9165C16.3248 18.3332 17.6581 17.1999 17.8998 15.8082L18.9498 9.52485C19.0998 8.54985 18.6248 7.29985 17.8581 6.67485ZM11.1248 14.9999C11.1248 15.3415 10.8415 15.6249 10.4998 15.6249C10.1581 15.6249 9.87481 15.3415 9.87481 14.9999V12.4999C9.87481 12.1582 10.1581 11.8749 10.4998 11.8749C10.8415 11.8749 11.1248 12.1582 11.1248 12.4999V14.9999Z" fill="#5374FF"/>
</svg>
