<svg width="21" height="20" viewBox="0 0 21 20" fill="none" xmlns="http://www.w3.org/2000/svg">
<path d="M11.2706 3.25871L11.2713 3.26012L12.7367 6.19098C12.9041 6.53118 13.1807 6.81694 13.4614 7.02404C13.7433 7.2321 14.0974 7.41094 14.4688 7.47284L14.4692 7.4729L17.1271 7.9145C17.8478 8.03461 18.035 8.30975 18.0708 8.42088C18.1059 8.53032 18.1156 8.86073 17.5969 9.3759L17.5951 9.37771L15.5284 11.4444C15.241 11.7318 15.0525 12.1116 14.9492 12.4725C14.8458 12.8336 14.8054 13.2539 14.8936 13.6471L14.8936 13.6471L14.8947 13.652L15.4862 16.2098C15.705 17.159 15.468 17.4332 15.4221 17.4666C15.375 17.5009 15.0389 17.642 14.1985 17.1456L11.7078 15.6712C11.7077 15.6711 11.7077 15.6711 11.7076 15.6711C11.7076 15.671 11.7075 15.671 11.7075 15.671C11.3386 15.4525 10.8999 15.3664 10.5035 15.3664C10.1064 15.3664 9.66837 15.4528 9.29824 15.6681L9.29823 15.6681L9.29336 15.671L6.80169 17.146L6.80098 17.1464C5.96843 17.6405 5.6314 17.4996 5.58207 17.4636C5.53333 17.4281 5.29668 17.1515 5.51444 16.2105L5.51446 16.2104L6.10613 13.652L6.10614 13.652L6.10725 13.6471C6.19539 13.2539 6.15505 12.8336 6.05166 12.4725C5.94837 12.1116 5.7598 11.7318 5.47241 11.4444L3.40574 9.37771C2.89041 8.86238 2.8981 8.53074 2.93362 8.41952C2.9689 8.30903 3.15375 8.03458 3.87334 7.91457C3.87346 7.91454 3.87359 7.91452 3.87371 7.9145L6.53167 7.4729L6.53167 7.4729L6.53431 7.47246C6.90225 7.40997 7.25399 7.2303 7.53357 7.023C7.81223 6.81639 8.08844 6.53099 8.25577 6.19104L9.72053 3.26152C9.72062 3.26134 9.72071 3.26116 9.7208 3.26097C10.0665 2.57347 10.3915 2.48096 10.4994 2.48096C10.6059 2.48096 10.9289 2.57186 11.2706 3.25871Z" fill="#5374FF" stroke="#5374FF" stroke-width="1.5" stroke-linecap="round" stroke-linejoin="round"/>
</svg>
