<svg width="21" height="20" viewBox="0 0 21 20" fill="none" xmlns="http://www.w3.org/2000/svg">
<path d="M11.9421 2.92471L13.4087 5.85804C13.6087 6.26637 14.1421 6.65804 14.5921 6.73304L17.2504 7.17471C18.9504 7.45804 19.3504 8.69137 18.1254 9.90804L16.0587 11.9747C15.7087 12.3247 15.5171 12.9997 15.6254 13.483L16.2171 16.0414C16.6837 18.0664 15.6087 18.8497 13.8171 17.7914L11.3254 16.3164C10.8754 16.0497 10.1337 16.0497 9.67541 16.3164L7.18375 17.7914C5.40041 18.8497 4.31708 18.058 4.78375 16.0414L5.37541 13.483C5.48375 12.9997 5.29208 12.3247 4.94208 11.9747L2.87541 9.90804C1.65875 8.69137 2.05041 7.45804 3.75041 7.17471L6.40875 6.73304C6.85041 6.65804 7.38375 6.26637 7.58375 5.85804L9.05041 2.92471C9.85041 1.33304 11.1504 1.33304 11.9421 2.92471Z" stroke="#999999" stroke-width="1.5" stroke-linecap="round" stroke-linejoin="round"/>
</svg>
