<svg width="21" height="20" viewBox="0 0 21 20" fill="none" xmlns="http://www.w3.org/2000/svg">
<path d="M13.9915 1.6665H7.00817C3.97484 1.6665 2.1665 3.47484 2.1665 6.50817V13.4832C2.1665 16.5248 3.97484 18.3332 7.00817 18.3332H13.9832C17.0165 18.3332 18.8248 16.5248 18.8248 13.4915V6.50817C18.8332 3.47484 17.0248 1.6665 13.9915 1.6665ZM5.9165 10.4748H8.22484C8.5665 10.4748 8.84984 10.7582 8.84984 11.0998C8.84984 11.4415 8.5665 11.7248 8.22484 11.7248H5.9165C5.57484 11.7248 5.2915 11.4415 5.2915 11.0998C5.2915 10.7582 5.57484 10.4748 5.9165 10.4748ZM11.3082 14.8582H5.9165C5.57484 14.8582 5.2915 14.5748 5.2915 14.2332C5.2915 13.8915 5.57484 13.6082 5.9165 13.6082H11.3082C11.6498 13.6082 11.9332 13.8915 11.9332 14.2332C11.9332 14.5748 11.6582 14.8582 11.3082 14.8582ZM15.0832 14.8582H13.5415C13.1998 14.8582 12.9165 14.5748 12.9165 14.2332C12.9165 13.8915 13.1998 13.6082 13.5415 13.6082H15.0832C15.4248 13.6082 15.7082 13.8915 15.7082 14.2332C15.7082 14.5748 15.4248 14.8582 15.0832 14.8582ZM15.0832 11.7248H10.4748C10.1332 11.7248 9.84984 11.4415 9.84984 11.0998C9.84984 10.7582 10.1332 10.4748 10.4748 10.4748H15.0832C15.4248 10.4748 15.7082 10.7582 15.7082 11.0998C15.7082 11.4415 15.4248 11.7248 15.0832 11.7248Z" fill="#5374FF"/>
</svg>
