<svg width="40" height="40" viewBox="0 0 40 40" fill="none" xmlns="http://www.w3.org/2000/svg">
<rect x="0.5" y="0.5" width="39" height="39" rx="11.5" fill="white"/>
<rect x="0.5" y="0.5" width="39" height="39" rx="11.5" stroke="#E6E6E6"/>
<path d="M20.0165 12.4253C17.2582 12.4253 15.0165 14.667 15.0165 17.4253V19.8336C15.0165 20.342 14.7998 21.117 14.5415 21.5503L13.5832 23.142C12.9915 24.1253 13.3998 25.217 14.4832 25.5836C18.0748 26.7836 21.9498 26.7836 25.5415 25.5836C26.5498 25.2503 26.9915 24.0586 26.4415 23.142L25.4832 21.5503C25.2332 21.117 25.0165 20.342 25.0165 19.8336V17.4253C25.0165 14.6753 22.7665 12.4253 20.0165 12.4253Z" stroke="#808080" stroke-width="1.5" stroke-miterlimit="10" stroke-linecap="round"/>
<path d="M21.5584 12.6667C21.3001 12.5917 21.0334 12.5334 20.7584 12.5C19.9584 12.4 19.1918 12.4584 18.4751 12.6667C18.7168 12.05 19.3168 11.6167 20.0168 11.6167C20.7168 11.6167 21.3168 12.05 21.5584 12.6667Z" stroke="#808080" stroke-width="1.5" stroke-miterlimit="10" stroke-linecap="round" stroke-linejoin="round"/>
<path d="M22.5166 25.8833C22.5166 27.2583 21.3916 28.3833 20.0166 28.3833C19.3333 28.3833 18.6999 28.1 18.2499 27.65C17.7999 27.2 17.5166 26.5666 17.5166 25.8833" stroke="#808080" stroke-width="1.5" stroke-miterlimit="10"/>
</svg>
