<svg width="21" height="20" viewBox="0 0 21 20" fill="none" xmlns="http://www.w3.org/2000/svg">
<path d="M18.8337 17.7083H18.0003V8.3166C18.0003 7.79993 17.767 7.3166 17.3587 6.99993L16.3337 6.19993L16.317 4.15827C16.317 3.69993 15.942 3.33327 15.4837 3.33327H12.642L11.5253 2.4666C10.9253 1.9916 10.0753 1.9916 9.47533 2.4666L3.64199 6.99993C3.23366 7.3166 3.00033 7.79994 3.00033 8.30827L2.95866 17.7083H2.16699C1.82533 17.7083 1.54199 17.9916 1.54199 18.3333C1.54199 18.6749 1.82533 18.9583 2.16699 18.9583H18.8337C19.1753 18.9583 19.4587 18.6749 19.4587 18.3333C19.4587 17.9916 19.1753 17.7083 18.8337 17.7083ZM5.91699 10.6249V9.37494C5.91699 8.9166 6.29199 8.5416 6.75033 8.5416H8.41699C8.87533 8.5416 9.25033 8.9166 9.25033 9.37494V10.6249C9.25033 11.0833 8.87533 11.4583 8.41699 11.4583H6.75033C6.29199 11.4583 5.91699 11.0833 5.91699 10.6249ZM12.5837 17.7083H8.41699V15.4166C8.41699 14.7249 8.97533 14.1666 9.66699 14.1666H11.3337C12.0253 14.1666 12.5837 14.7249 12.5837 15.4166V17.7083ZM15.0837 10.6249C15.0837 11.0833 14.7087 11.4583 14.2503 11.4583H12.5837C12.1253 11.4583 11.7503 11.0833 11.7503 10.6249V9.37494C11.7503 8.9166 12.1253 8.5416 12.5837 8.5416H14.2503C14.7087 8.5416 15.0837 8.9166 15.0837 9.37494V10.6249Z" fill="#5374FF"/>
</svg>
