<svg width="21" height="20" viewBox="0 0 21 20" fill="none" xmlns="http://www.w3.org/2000/svg">
<path d="M2.16699 18.3335H18.8337" stroke="#999999" stroke-width="1.5" stroke-miterlimit="10" stroke-linecap="round" stroke-linejoin="round"/>
<path d="M2.95898 18.3334L3.00065 8.30836C3.00065 7.80003 3.24232 7.31674 3.64232 7.00008L9.47565 2.4584C10.0757 1.99173 10.9173 1.99173 11.5256 2.4584L17.359 6.99173C17.7673 7.3084 18.0007 7.7917 18.0007 8.30836V18.3334" stroke="#999999" stroke-width="1.5" stroke-miterlimit="10" stroke-linejoin="round"/>
<path d="M11.3337 14.1665H9.66699C8.97533 14.1665 8.41699 14.7248 8.41699 15.4165V18.3332H12.5837V15.4165C12.5837 14.7248 12.0253 14.1665 11.3337 14.1665Z" stroke="#999999" stroke-width="1.5" stroke-miterlimit="10" stroke-linejoin="round"/>
<path d="M8.41699 11.4582H6.75033C6.29199 11.4582 5.91699 11.0832 5.91699 10.6248V9.37484C5.91699 8.9165 6.29199 8.5415 6.75033 8.5415H8.41699C8.87533 8.5415 9.25033 8.9165 9.25033 9.37484V10.6248C9.25033 11.0832 8.87533 11.4582 8.41699 11.4582Z" stroke="#999999" stroke-width="1.5" stroke-miterlimit="10" stroke-linejoin="round"/>
<path d="M14.25 11.4582H12.5833C12.125 11.4582 11.75 11.0832 11.75 10.6248V9.37484C11.75 8.9165 12.125 8.5415 12.5833 8.5415H14.25C14.7083 8.5415 15.0833 8.9165 15.0833 9.37484V10.6248C15.0833 11.0832 14.7083 11.4582 14.25 11.4582Z" stroke="#999999" stroke-width="1.5" stroke-miterlimit="10" stroke-linejoin="round"/>
<path d="M16.3333 5.8335L16.3083 3.3335H12.6416" stroke="#999999" stroke-width="1.5" stroke-miterlimit="10" stroke-linecap="round" stroke-linejoin="round"/>
</svg>
