<svg width="20" height="20" viewBox="0 0 20 20" fill="none" xmlns="http://www.w3.org/2000/svg">
<g clip-path="url(#clip0_69_2939)">
<path d="M1.93658 15.9345C3.22819 14.5589 6.5026 11.7261 11.1605 11.4165C11.6197 11.386 11.9939 11.762 11.9939 12.2222V13.3644C11.9939 14.1068 12.8916 14.4786 13.4165 13.9537L18.0503 9.31987C18.3758 8.99443 18.3758 8.46679 18.0503 8.14136L13.4165 3.50755C12.8916 2.98258 11.9939 3.35438 11.9939 4.09681V5.23902C11.9939 5.69926 11.6197 6.06866 11.1624 6.12031C6.92742 6.59858 1.94594 10.5997 1.3609 15.6703C1.35226 15.7404 1.36614 15.8113 1.40051 15.8729C1.43489 15.9345 1.48798 15.9836 1.5521 16.013C1.61622 16.0424 1.68804 16.0507 1.75717 16.0366C1.82629 16.0225 1.88913 15.9867 1.93658 15.9345Z" stroke="#808080" stroke-width="1.5" stroke-linecap="round" stroke-linejoin="round"/>
</g>
<defs>
<clipPath id="clip0_69_2939">
<rect width="20" height="20" fill="white"/>
</clipPath>
</defs>
</svg>
