<svg width="103" height="102" viewBox="0 0 103 102" fill="none" xmlns="http://www.w3.org/2000/svg">
<circle cx="51.5" cy="51" r="51" fill="#F3F7FF"/>
<path d="M42.4996 31C41.6996 19.8 48.8329 11 52.4995 8H49.5H41L38 9.5L33 13L30.5 18.5L30 37.5C30.1667 38.8333 30.7 41.6 31.5 42C32.3 42.4 34.1667 42.5 35 42.5V49C35 54.2 39 58.1667 41 59.5C41 61.9 39.3333 64.5 38.5 65.5C41.7 72.3 48.5 73.3333 51.5 73V72.5C50.7004 67.7 56.1668 62.8333 59 61C56.8332 60.1667 51.5996 57.4 48 53C43.5004 47.5 43.4996 45 42.4996 31Z" fill="#D8E4FB"/>
<path d="M55.5 24C50.3 31.2 39.6667 33.3333 35 33.5V49C35 51 38 63 52 63C63.2 63 67.6667 53.6667 68.5 49V31.5C62.9 31.5 57.5 26.5 55.5 24Z" stroke="#4B68E6" stroke-width="2.5" stroke-linejoin="round"/>
<path d="M31.5996 42C31.0996 42 30.0996 41.6 30.0996 40C30.0996 38.4 30.0996 28 30.0996 23C30.0996 18 32.6996 8 43.0996 8C53.4996 8 60.4329 8 62.5996 8C66.2663 8.5 73.5996 12.2 73.5996 23C73.5996 33.8 73.5996 38.8333 73.5996 40C73.5996 40.6667 73.2996 42 72.0996 42" stroke="#4B68E6" stroke-width="2.5" stroke-linecap="round"/>
<path d="M13.5 81.5C14.1667 76.6667 17.7242 68.4393 26 67C37.5 65 40.5 65 40.5 62V59" stroke="#4B68E6" stroke-width="2.5" stroke-linecap="round" stroke-linejoin="round"/>
<path d="M90 81.5C89.3333 76.6667 85.7083 68.7844 77.5 67C66 64.5 63 65 63 62V59" stroke="#4B68E6" stroke-width="2.5" stroke-linecap="round" stroke-linejoin="round"/>
<path d="M38 66C39.8333 69.5 46.4 75.8 58 73" stroke="#4B68E6" stroke-width="2.5" stroke-linecap="round" stroke-linejoin="round"/>
<path d="M61.5 71C62 70.6667 63.3 69.8 64.5 69" stroke="#4B68E6" stroke-width="2.5" stroke-linecap="round" stroke-linejoin="round"/>
</svg>
